<svg xmlns="http://www.w3.org/2000/svg" viewBox="0 23 480 110"><g id="sil" fill="currentColor">
<path d="M464 130L470 114.6L468 101.1L56 97.8L20 95L16 115.5L22 121L12 122.5L10 126L13 129L22 129L32 130Z"/>
<path d="M62 74.1L62.3 71.5L63.3 69.1L64.9 67L67 65.4L69.4 64.4L72 64.1L444 64.1L444 101.1L62 101.1Z"/>
<path d="M80 50.3L80.3 48L81.2 45.8L82.6 44L84.5 42.5L86.7 41.6L89 41.3L436 41.3L436 65.1L80 65.1Z"/>
<path d="M73 47.7L84 47.7L84 53.1L73 53.1Z"/>
<path fill="var(--sil-funnel,inherit)" d="M318.1 28.6L333.1 28.6L329.1 43.3L314.1 43.3Z"/>
<path d="M90 29.1L91.6 29.1L91.6 41.3L90 41.3Z"/>
</g></svg>
