<svg xmlns="http://www.w3.org/2000/svg" viewBox="0 25 480 108"><g id="sil" fill="currentColor">
<path d="M464 130L470 114L468 98L56 94L20 90.8L16 115L22 121L12 122.5L10 126L13 129L22 129L32 130Z"/>
<path d="M62 75.4L62.3 72.8L63.3 70.4L64.9 68.3L67 66.7L69.4 65.7L72 65.4L444 65.4L444 98L62 98Z"/>
<path d="M73 54.3L73.3 52L74.2 49.8L75.6 48L77.5 46.6L79.7 45.7L82 45.3L436 45.3L436 66.4L73 66.4Z"/>
<path d="M66 51L77 51L77 55.8L66 55.8Z"/>
<path fill="var(--sil-funnel,inherit)" d="M318.1 32.4L333.1 32.4L329.1 47.3L314.1 47.3Z"/>
<path d="M83 30.8L84.6 30.8L84.6 45.3L83 45.3Z"/>
</g></svg>
