<svg xmlns="http://www.w3.org/2000/svg" viewBox="0 27 480 106"><g id="sil" fill="currentColor">
<path d="M464 130L470 114L468 97.9L56 93.9L20 90.6L16 115L22 121L12 122.5L10 126L13 129L22 129L32 130Z"/>
<path d="M62 76.2L62.3 73.6L63.3 71.2L64.9 69.1L67 67.6L69.4 66.6L72 66.2L444 66.2L444 97.9L62 97.9Z"/>
<path d="M72 55.8L72.3 53.5L73.2 51.3L74.6 49.4L76.5 48L78.7 47.1L81 46.8L436 46.8L436 67.2L72 67.2Z"/>
<path d="M65 52.2L76 52.2L76 56.9L65 56.9Z"/>
<path fill="var(--sil-funnel,inherit)" d="M318.1 33.8L333.1 33.8L329.1 48.8L314.1 48.8Z"/>
<path d="M82 32.2L83.6 32.2L83.6 46.8L82 46.8Z"/>
</g></svg>
