<svg xmlns="http://www.w3.org/2000/svg" viewBox="0 30 480 103"><g id="sil" fill="currentColor">
<path d="M464 130L470 114.5L468 100.5L56 97.1L20 94.2L16 115.4L22 121L12 122.5L10 126L13 129L22 129L32 130Z"/>
<path d="M62 79.1L62.3 76.5L63.3 74.1L64.9 72L67 70.4L69.4 69.4L72 69.1L444 69.1L444 100.5L62 100.5Z"/>
<path d="M74 58.8L74.3 56.4L75.2 54.3L76.6 52.4L78.5 51L80.7 50.1L83 49.8L436 49.8L436 70.1L74 70.1Z"/>
<path d="M67 55.2L78 55.2L78 59.8L67 59.8Z"/>
<path fill="var(--sil-funnel,inherit)" d="M318.1 35.1L333.1 35.1L329.1 51.8L314.1 51.8Z"/>
<path d="M84 37.1L85.6 37.1L85.6 49.8L84 49.8Z"/>
</g></svg>
