<svg xmlns="http://www.w3.org/2000/svg" viewBox="0 29 480 104"><g id="sil" fill="currentColor">
<path d="M464 130L470 115.1L468 103.3L56 100.4L20 98L16 115.8L22 121L12 122.5L10 126L13 129L22 129L32 130Z"/>
<path d="M62 77L62.3 74.4L63.3 72L64.9 69.9L67 68.3L69.4 67.3L72 67L444 67L444 103.3L62 103.3Z"/>
<path d="M83 53.7L83.3 51.3L84.2 49.2L85.6 47.3L87.5 45.9L89.7 45L92 44.7L436 44.7L436 68L83 68Z"/>
<path d="M76 50.9L87 50.9L87 56.3L76 56.3Z"/>
<path fill="var(--sil-funnel,inherit)" d="M318.1 34.7L333.1 34.7L329.1 46.7L314.1 46.7Z"/>
<path d="M93 34L94.6 34L94.6 44.7L93 44.7Z"/>
</g></svg>
