<svg xmlns="http://www.w3.org/2000/svg" viewBox="0 25 480 108"><g id="sil" fill="currentColor">
<path d="M464 130L470 114.3L468 99.3L56 95.5L20 92.4L16 115.2L22 121L12 122.5L10 126L13 129L22 129L32 130Z"/>
<path d="M62 76.5L62.3 73.9L63.3 71.5L64.9 69.4L67 67.9L69.4 66.9L72 66.5L444 66.5L444 99.3L62 99.3Z"/>
<path d="M73 55.4L73.3 53.1L74.2 50.9L75.6 49.1L77.5 47.7L79.7 46.8L82 46.4L436 46.4L436 67.5L73 67.5Z"/>
<path d="M66 52.1L77 52.1L77 56.9L66 56.9Z"/>
<path fill="var(--sil-funnel,inherit)" d="M318.1 30.8L333.1 30.8L329.1 48.4L314.1 48.4Z"/>
<path d="M83 32.8L84.6 32.8L84.6 46.4L83 46.4Z"/>
</g></svg>
