<svg xmlns="http://www.w3.org/2000/svg" viewBox="0 44 480 89"><g id="sil" fill="currentColor">
<path d="M464 130L470 116.4L468 110L56 108.1L20 106.5L16 116.8L22 121L12 122.5L10 126L13 129L22 129L32 130Z"/>
<path d="M44 89.7L62 83.5L145.3 83.5L145.3 110L44 110Z"/>
<path d="M182.9 83.5L350 83.5L350 110L182.9 110Z"/>
<path d="M378.4 85.6L448 90.4L452 110L378.4 110Z"/>
<path d="M150.3 61.4L150.4 60.8L150.6 60.4L150.9 59.9L151.3 59.6L151.8 59.4L152.3 59.4L177.9 59.4L177.9 110L150.3 110Z"/>
<path d="M146.3 61.4L181.9 61.4L181.9 64.8L146.3 64.8Z"/>
<path d="M164.1 49L165.7 49L165.7 59.4L164.1 59.4Z"/>
<path d="M358 62.9L376.4 62.9L373.4 110L355 110Z"/>
</g></svg>
