<svg xmlns="http://www.w3.org/2000/svg" viewBox="0 60 480 73"><g id="sil" fill="currentColor">
<path d="M464 130L470 115.8L468 107.2L56 105.4L20 103.9L16 116.4L22 121L12 122.5L10 126L13 129L22 129L32 130Z"/>
<path d="M396 80.2L396.1 79.5L396.3 78.9L396.7 78.4L397.3 78L397.9 77.7L398.5 77.7L436 77.7L436 107.2L396 107.2Z"/>
<path d="M392 79.3L440 79.3L440 82.3L392 82.3Z"/>
<path fill="var(--sil-funnel,inherit)" d="M420.8 65.2L433.8 65.2L429.8 79.7L416.8 79.7Z"/>
<path d="M57 103.7L57.1 103.4L57.2 103L57.4 102.7L57.8 102.4L58.1 102.3L58.5 102.2L87.7 102.2L87.7 107.2L57 107.2Z"/>
<path d="M93.7 103.7L93.7 103.4L93.9 103L94.1 102.7L94.4 102.4L94.8 102.3L95.2 102.2L124.3 102.2L124.3 107.2L93.7 107.2Z"/>
<path d="M130.3 103.7L130.4 103.4L130.5 103L130.8 102.7L131.1 102.4L131.4 102.3L131.8 102.2L161 102.2L161 107.2L130.3 107.2Z"/>
<path d="M167 103.7L167.1 103.4L167.2 103L167.4 102.7L167.8 102.4L168.1 102.3L168.5 102.2L197.7 102.2L197.7 107.2L167 107.2Z"/>
<path d="M203.7 103.7L203.7 103.4L203.9 103L204.1 102.7L204.4 102.4L204.8 102.3L205.2 102.2L234.3 102.2L234.3 107.2L203.7 107.2Z"/>
<path d="M240.3 103.7L240.4 103.4L240.5 103L240.8 102.7L241.1 102.4L241.4 102.3L241.8 102.2L271 102.2L271 107.2L240.3 107.2Z"/>
<path d="M277 103.7L277.1 103.4L277.2 103L277.4 102.7L277.8 102.4L278.1 102.3L278.5 102.2L307.7 102.2L307.7 107.2L277 107.2Z"/>
<path d="M313.7 103.7L313.7 103.4L313.9 103L314.1 102.7L314.4 102.4L314.8 102.3L315.2 102.2L344.3 102.2L344.3 107.2L313.7 107.2Z"/>
<path d="M350.3 103.7L350.4 103.4L350.5 103L350.8 102.7L351.1 102.4L351.4 102.3L351.8 102.2L381 102.2L381 107.2L350.3 107.2Z"/>
<path d="M50 92.5L51.6 92.5L51.6 107.2L50 107.2Z"/>
<path d="M40 104.6L40.1 104.1L40.3 103.6L40.6 103.2L41 102.9L41.5 102.7L42 102.6L62 102.6L62 107.2L40 107.2Z"/>
</g></svg>
