<svg xmlns="http://www.w3.org/2000/svg" viewBox="0 25 480 108"><g id="sil" fill="currentColor">
<path d="M464 130L470 114.5L468 100.5L56 97.1L20 94.2L16 115.4L22 121L12 122.5L10 126L13 129L22 129L32 130Z"/>
<path d="M62 76.1L62.3 73.5L63.3 71.1L64.9 69L67 67.5L69.4 66.5L72 66.1L444 66.1L444 100.5L62 100.5Z"/>
<path d="M76 54L76.3 51.7L77.2 49.5L78.6 47.6L80.5 46.2L82.7 45.3L85 45L436 45L436 67.1L76 67.1Z"/>
<path d="M69 50.9L80 50.9L80 56L69 56Z"/>
<path fill="var(--sil-funnel,inherit)" d="M318.1 30.3L333.1 30.3L329.1 47L314.1 47Z"/>
<path d="M86 32.3L87.6 32.3L87.6 45L86 45Z"/>
</g></svg>
