<svg xmlns="http://www.w3.org/2000/svg" viewBox="0 25 480 108"><g id="sil" fill="currentColor">
<path d="M464 130L470 114.9L468 102.4L56 99.2L20 96.7L16 115.7L22 121L12 122.5L10 126L13 129L22 129L32 130Z"/>
<path d="M62 76.2L62.3 73.6L63.3 71.2L64.9 69.2L67 67.6L69.4 66.6L72 66.2L444 66.2L444 102.4L62 102.4Z"/>
<path d="M76 53.1L76.3 50.8L77.2 48.6L78.6 46.7L80.5 45.3L82.7 44.4L85 44.1L436 44.1L436 67.2L76 67.2Z"/>
<path d="M69 50.3L80 50.3L80 55.6L69 55.6Z"/>
<path fill="var(--sil-funnel,inherit)" d="M318.1 30.7L333.1 30.7L329.1 46.1L314.1 46.1Z"/>
<path d="M86 32.7L87.6 32.7L87.6 44.1L86 44.1Z"/>
</g></svg>
