<svg xmlns="http://www.w3.org/2000/svg" viewBox="0 22 480 111"><g id="sil" fill="currentColor">
<path d="M464 130L470 115.1L468 103.3L56 100.4L20 98L16 115.8L22 121L12 122.5L10 126L13 129L22 129L32 130Z"/>
<path d="M62 74.4L62.3 71.8L63.3 69.4L64.9 67.3L67 65.7L69.4 64.7L72 64.4L444 64.4L444 103.3L62 103.3Z"/>
<path d="M78 49.6L78.3 47.2L79.2 45.1L80.6 43.2L82.5 41.8L84.7 40.9L87 40.6L436 40.6L436 65.4L78 65.4Z"/>
<path d="M71 47.2L82 47.2L82 53L71 53Z"/>
<path d="M304 27.9L319 27.9L315 42.6L300 42.6Z"/>
<path d="M88 29.9L89.6 29.9L89.6 40.6L88 40.6Z"/>
</g></svg>
