<svg xmlns="http://www.w3.org/2000/svg" viewBox="0 28 480 105"><g id="sil" fill="currentColor">
<path d="M464 130L470 114.9L468 102.5L56 99.4L20 96.9L16 115.7L22 121L12 122.5L10 126L13 129L22 129L32 130Z"/>
<path d="M62 76.8L62.3 74.2L63.3 71.8L64.9 69.7L67 68.1L69.4 67.1L72 66.8L444 66.8L444 102.5L62 102.5Z"/>
<path d="M86 53.9L86.3 51.5L87.2 49.4L88.6 47.5L90.5 46.1L92.7 45.2L95 44.9L436 44.9L436 67.8L86 67.8Z"/>
<path d="M79 51L90 51L90 56.2L79 56.2Z"/>
<path fill="var(--sil-funnel,inherit)" d="M318.1 34.4L333.1 34.4L329.1 46.9L314.1 46.9Z"/>
<path d="M96 33.6L97.6 33.6L97.6 44.9L96 44.9Z"/>
</g></svg>
