<svg xmlns="http://www.w3.org/2000/svg" viewBox="0 28 480 105"><g id="sil" fill="currentColor">
<path d="M464 130L470 114.9L468 102.5L56 99.4L20 96.9L16 115.7L22 121L12 122.5L10 126L13 129L22 129L32 130Z"/>
<path d="M62 76.7L62.3 74.1L63.3 71.7L64.9 69.6L67 68L69.4 67L72 66.7L444 66.7L444 102.5L62 102.5Z"/>
<path d="M86 53.7L86.3 51.4L87.2 49.2L88.6 47.4L90.5 45.9L92.7 45L95 44.7L436 44.7L436 67.7L86 67.7Z"/>
<path d="M79 50.9L90 50.9L90 56.1L79 56.1Z"/>
<path d="M318.1 34.3L333.1 34.3L329.1 46.7L314.1 46.7Z"/>
<path d="M96 33.4L97.6 33.4L97.6 44.7L96 44.7Z"/>
</g></svg>
