<svg xmlns="http://www.w3.org/2000/svg" viewBox="0 31 480 102"><g id="sil" fill="currentColor">
<path d="M464 130L470 114.8L468 102L56 98.9L20 96.2L16 115.6L22 121L12 122.5L10 126L13 129L22 129L32 130Z"/>
<path d="M62 78.8L62.3 76.2L63.3 73.8L64.9 71.7L67 70.1L69.4 69.1L72 68.8L444 68.8L444 102L62 102Z"/>
<path d="M77 57.4L77.3 55.1L78.2 52.9L79.6 51L81.5 49.6L83.7 48.7L86 48.4L436 48.4L436 69.8L77 69.8Z"/>
<path d="M70 54.1L81 54.1L81 59L70 59Z"/>
<path fill="var(--sil-funnel,inherit)" d="M318.1 36.2L333.1 36.2L329.1 50.4L314.1 50.4Z"/>
<path d="M87 36.8L88.6 36.8L88.6 48.4L87 48.4Z"/>
</g></svg>
