<svg xmlns="http://www.w3.org/2000/svg" viewBox="0 25 480 108"><g id="sil" fill="currentColor">
<path d="M464 130L470 114.7L468 101.5L56 98.2L20 95.5L16 115.5L22 121L12 122.5L10 126L13 129L22 129L32 130Z"/>
<path d="M62 75.1L62.3 72.5L63.3 70.1L64.9 68L67 66.5L69.4 65.5L72 65.1L444 65.1L444 101.5L62 101.5Z"/>
<path d="M84 51.8L84.3 49.5L85.2 47.3L86.6 45.5L88.5 44L90.7 43.1L93 42.8L436 42.8L436 66.1L84 66.1Z"/>
<path d="M77 49.1L88 49.1L88 54.4L77 54.4Z"/>
<path fill="var(--sil-funnel,inherit)" d="M318.1 31.8L333.1 31.8L329.1 44.8L314.1 44.8Z"/>
<path d="M94 30.8L95.6 30.8L95.6 42.8L94 42.8Z"/>
</g></svg>
