<svg xmlns="http://www.w3.org/2000/svg" viewBox="0 30 480 103"><g id="sil" fill="currentColor">
<path d="M464 130L470 114.8L468 102.1L56 99L20 96.4L16 115.6L22 121L12 122.5L10 126L13 129L22 129L32 130Z"/>
<path d="M62 78.2L62.3 75.6L63.3 73.2L64.9 71.1L67 69.5L69.4 68.5L72 68.2L444 68.2L444 102.1L62 102.1Z"/>
<path d="M78 56.3L78.3 54L79.2 51.8L80.6 50L82.5 48.5L84.7 47.6L87 47.3L436 47.3L436 69.2L78 69.2Z"/>
<path d="M71 53.2L82 53.2L82 58.2L71 58.2Z"/>
<path fill="var(--sil-funnel,inherit)" d="M318.1 35.2L333.1 35.2L329.1 49.3L314.1 49.3Z"/>
<path d="M88 35.8L89.6 35.8L89.6 47.3L88 47.3Z"/>
</g></svg>
