<svg xmlns="http://www.w3.org/2000/svg" viewBox="0 42 480 91"><g id="sil" fill="currentColor">
<path d="M464 130L470 116.4L468 109.9L56 108.1L20 106.5L16 116.8L22 121L12 122.5L10 126L13 129L22 129L32 130Z"/>
<path d="M44 87.8L62 81.2L143 81.2L143 109.9L44 109.9Z"/>
<path d="M180.6 81.2L350.1 81.2L350.1 109.9L180.6 109.9Z"/>
<path d="M378.5 83.4L448 88.6L452 109.9L378.5 109.9Z"/>
<path d="M148 60.2L148.1 59.7L148.3 59.2L148.6 58.8L149 58.5L149.5 58.3L150 58.2L175.6 58.2L175.6 109.9L148 109.9Z"/>
<path d="M144 60.2L179.6 60.2L179.6 63.6L144 63.6Z"/>
<path d="M161.8 47.8L163.4 47.8L163.4 58.2L161.8 58.2Z"/>
<path d="M358.1 61.8L376.5 61.8L373.5 109.9L355.1 109.9Z"/>
</g></svg>
