<svg xmlns="http://www.w3.org/2000/svg" viewBox="0 26 480 107"><g id="sil" fill="currentColor">
<path d="M464 130L470 114.3L468 99.4L56 95.7L20 92.7L16 115.2L22 121L12 122.5L10 126L13 129L22 129L32 130Z"/>
<path d="M62 75.9L62.3 73.3L63.3 70.9L64.9 68.8L67 67.2L69.4 66.2L72 65.9L444 65.9L444 99.4L62 99.4Z"/>
<path d="M75 54.3L75.3 52L76.2 49.8L77.6 48L79.5 46.5L81.7 45.6L84 45.3L436 45.3L436 66.9L75 66.9Z"/>
<path d="M68 51.1L79 51.1L79 56L68 56Z"/>
<path fill="var(--sil-funnel,inherit)" d="M318.1 31.5L333.1 31.5L329.1 47.3L314.1 47.3Z"/>
<path d="M85 31.8L86.6 31.8L86.6 45.3L85 45.3Z"/>
</g></svg>
