<svg xmlns="http://www.w3.org/2000/svg" viewBox="0 28 480 105"><g id="sil" fill="currentColor">
<path d="M464 130L470 114.7L468 101.5L56 98.2L20 95.5L16 115.5L22 121L12 122.5L10 126L13 129L22 129L32 130Z"/>
<path d="M62 77L62.3 74.4L63.3 72L64.9 69.9L67 68.3L69.4 67.3L72 67L444 67L444 101.5L62 101.5Z"/>
<path d="M79 54.8L79.3 52.5L80.2 50.3L81.6 48.5L83.5 47L85.7 46.1L88 45.8L436 45.8L436 68L79 68Z"/>
<path d="M72 51.8L83 51.8L83 56.8L72 56.8Z"/>
<path fill="var(--sil-funnel,inherit)" d="M318.1 33.3L333.1 33.3L329.1 47.8L314.1 47.8Z"/>
<path d="M89 33.8L90.6 33.8L90.6 45.8L89 45.8Z"/>
</g></svg>
