<svg xmlns="http://www.w3.org/2000/svg" viewBox="0 25 480 108"><g id="sil" fill="currentColor">
<path d="M464 130L470 115L468 103L56 100L20 97.5L16 115.7L22 121L12 122.5L10 126L13 129L22 129L32 130Z"/>
<path d="M62 74.9L62.3 72.3L63.3 69.9L64.9 67.8L67 66.2L69.4 65.2L72 64.9L444 64.9L444 103L62 103Z"/>
<path d="M77 50.6L77.3 48.2L78.2 46.1L79.6 44.2L81.5 42.8L83.7 41.9L86 41.6L436 41.6L436 65.9L77 65.9Z"/>
<path d="M70 48.1L81 48.1L81 53.7L70 53.7Z"/>
<path fill="var(--sil-funnel,inherit)" d="M318.1 30L333.1 30L329.1 43.6L314.1 43.6Z"/>
<path d="M87 30.6L88.6 30.6L88.6 41.6L87 41.6Z"/>
</g></svg>
