<svg xmlns="http://www.w3.org/2000/svg" viewBox="0 28 480 105"><g id="sil" fill="currentColor">
<path d="M464 130L470 114.5L468 100.6L56 97.1L20 94.2L16 115.4L22 121L12 122.5L10 126L13 129L22 129L32 130Z"/>
<path d="M62 77.1L62.3 74.5L63.3 72.1L64.9 70L67 68.5L69.4 67.5L72 67.1L444 67.1L444 100.6L62 100.6Z"/>
<path d="M77 55.6L77.3 53.3L78.2 51.1L79.6 49.3L81.5 47.8L83.7 46.9L86 46.6L436 46.6L436 68.1L77 68.1Z"/>
<path d="M70 52.4L81 52.4L81 57.3L70 57.3Z"/>
<path fill="var(--sil-funnel,inherit)" d="M318.1 33.5L333.1 33.5L329.1 48.6L314.1 48.6Z"/>
<path d="M87 33.9L88.6 33.9L88.6 46.6L87 46.6Z"/>
</g></svg>
