<svg xmlns="http://www.w3.org/2000/svg" viewBox="0 22 480 111"><g id="sil" fill="currentColor">
<path d="M464 130L470 115L468 103.2L56 100.2L20 97.8L16 115.8L22 121L12 122.5L10 126L13 129L22 129L32 130Z"/>
<path d="M62 74L62.3 71.4L63.3 69L64.9 66.9L67 65.4L69.4 64.4L72 64L444 64L444 103.2L62 103.2Z"/>
<path d="M80 49L80.3 46.7L81.2 44.5L82.6 42.6L84.5 41.2L86.7 40.3L89 40L436 40L436 65L80 65Z"/>
<path d="M73 46.7L84 46.7L84 52.5L73 52.5Z"/>
<path fill="var(--sil-funnel,inherit)" d="M318.1 27.2L333.1 27.2L329.1 42L314.1 42Z"/>
<path fill="var(--sil-funnel,inherit)" d="M344.1 27.2L359.1 27.2L355.1 42L340.1 42Z"/>
<path d="M90 29.2L91.6 29.2L91.6 40L90 40Z"/>
</g></svg>
