<svg xmlns="http://www.w3.org/2000/svg" viewBox="0 27 480 106"><g id="sil" fill="currentColor">
<path d="M464 130L470 115L468 103.2L56 100.2L20 97.8L16 115.8L22 121L12 122.5L10 126L13 129L22 129L32 130Z"/>
<path d="M62 78L62.3 75.5L63.3 73L64.9 71L67 69.4L69.4 68.4L72 68L444 68L444 103.2L62 103.2Z"/>
<path d="M80 55.5L80.3 53.2L81.2 51L82.6 49.2L84.5 47.7L86.7 46.8L89 46.5L436 46.5L436 69L80 69Z"/>
<path d="M73 52.6L84 52.6L84 57.7L73 57.7Z"/>
<path d="M318.1 32.4L333.1 32.4L329.1 48.5L314.1 48.5Z"/>
<path d="M344.1 32.4L359.1 32.4L355.1 48.5L340.1 48.5Z"/>
<path d="M90 35.7L91.6 35.7L91.6 46.5L90 46.5Z"/>
</g></svg>
