<svg xmlns="http://www.w3.org/2000/svg" viewBox="0 26 480 107"><g id="sil" fill="currentColor">
<path d="M464 130L470 114.6L468 100.8L56 97.3L20 94.5L16 115.4L22 121L12 122.5L10 126L13 129L22 129L32 130Z"/>
<path d="M62 78.8L62.3 76.2L63.3 73.8L64.9 71.7L67 70.1L69.4 69.1L72 68.8L444 68.8L444 100.8L62 100.8Z"/>
<path d="M74 58.2L74.3 55.8L75.2 53.7L76.6 51.8L78.5 50.4L80.7 49.5L83 49.2L436 49.2L436 69.8L74 69.8Z"/>
<path d="M67 54.7L78 54.7L78 59.4L67 59.4Z"/>
<path fill="var(--sil-funnel,inherit)" d="M318.1 31.5L333.1 31.5L329.1 51.2L314.1 51.2Z"/>
<path fill="var(--sil-funnel,inherit)" d="M344.1 31.5L359.1 31.5L355.1 51.2L340.1 51.2Z"/>
<path d="M84 36.6L85.6 36.6L85.6 49.2L84 49.2Z"/>
</g></svg>
