<svg xmlns="http://www.w3.org/2000/svg" viewBox="0 28 480 105"><g id="sil" fill="currentColor">
<path d="M464 130L470 115L468 103.1L56 100.1L20 97.7L16 115.8L22 121L12 122.5L10 126L13 129L22 129L32 130Z"/>
<path d="M62 78.7L62.3 76.1L63.3 73.7L64.9 71.7L67 70.1L69.4 69.1L72 68.7L444 68.7L444 103.1L62 103.1Z"/>
<path d="M78 56.6L78.3 54.3L79.2 52.1L80.6 50.3L82.5 48.9L84.7 48L87 47.6L436 47.6L436 69.7L78 69.7Z"/>
<path d="M71 53.5L82 53.5L82 58.6L71 58.6Z"/>
<path fill="var(--sil-funnel,inherit)" d="M318.1 33.5L333.1 33.5L329.1 49.6L314.1 49.6Z"/>
<path fill="var(--sil-funnel,inherit)" d="M344.1 33.5L359.1 33.5L355.1 49.6L340.1 49.6Z"/>
<path d="M88 36.8L89.6 36.8L89.6 47.6L88 47.6Z"/>
</g></svg>
