<svg xmlns="http://www.w3.org/2000/svg" viewBox="0 47 480 86"><g id="sil" fill="currentColor">
<path d="M464 130L470 116.4L468 109.9L56 108L20 106.4L16 116.8L22 121L12 122.5L10 126L13 129L22 129L32 130Z"/>
<path d="M44 91.4L62 85.6L294.2 85.6L294.2 109.9L44 109.9Z"/>
<path d="M331.9 85.6L370.5 85.6L370.5 109.9L331.9 109.9Z"/>
<path d="M399 87.6L448 92.1L452 109.9L399 109.9Z"/>
<path d="M299.2 64.5L299.2 64L299.4 63.5L299.7 63.1L300.2 62.8L300.6 62.6L301.2 62.5L326.9 62.5L326.9 109.9L299.2 109.9Z"/>
<path d="M295.2 64.5L330.9 64.5L330.9 67.9L295.2 67.9Z"/>
<path d="M313 52.1L314.6 52.1L314.6 62.5L313 62.5Z"/>
<path fill="var(--sil-funnel,inherit)" d="M378.5 65.8L397 65.8L394 109.9L375.5 109.9Z"/>
</g></svg>
