<svg xmlns="http://www.w3.org/2000/svg" viewBox="0 64 480 69"><g id="sil" fill="currentColor">
<path d="M464 130L470 116.2L468 108.9L56 107.4L20 106.1L16 116.6L22 121L12 122.5L10 126L13 129L22 129L32 130Z"/>
<path d="M394 83.2L394.1 82.5L394.3 81.9L394.7 81.4L395.3 81L395.9 80.7L396.5 80.7L436 80.7L436 108.9L394 108.9Z"/>
<path d="M390 82.3L440 82.3L440 85.3L390 85.3Z"/>
<path fill="var(--sil-funnel,inherit)" d="M419.8 69.7L432.8 69.7L428.8 82.7L415.8 82.7Z"/>
<path d="M54 106.3L388 106.3L388 107.7L54 107.7Z"/>
<path d="M66 107.7L67.6 107.7L67.6 108.9L66 108.9Z"/>
<path d="M100 107.7L101.6 107.7L101.6 108.9L100 108.9Z"/>
<path d="M134 107.7L135.6 107.7L135.6 108.9L134 108.9Z"/>
<path d="M168 107.7L169.6 107.7L169.6 108.9L168 108.9Z"/>
<path d="M202 107.7L203.6 107.7L203.6 108.9L202 108.9Z"/>
<path d="M236 107.7L237.6 107.7L237.6 108.9L236 108.9Z"/>
<path d="M270 107.7L271.6 107.7L271.6 108.9L270 108.9Z"/>
<path d="M304 107.7L305.6 107.7L305.6 108.9L304 108.9Z"/>
<path d="M338 107.7L339.6 107.7L339.6 108.9L338 108.9Z"/>
<path d="M372 107.7L373.6 107.7L373.6 108.9L372 108.9Z"/>
<path d="M218 102.4L246 102.4L246 108.9L218 108.9Z"/>
<path d="M50 95.4L51.6 95.4L51.6 108.9L50 108.9Z"/>
<path d="M40 106.3L40.1 105.8L40.3 105.3L40.6 104.9L41 104.6L41.5 104.4L42 104.3L62 104.3L62 108.9L40 108.9Z"/>
</g></svg>
