<svg xmlns="http://www.w3.org/2000/svg" viewBox="0 45 480 88"><g id="sil" fill="currentColor">
<path d="M464 130L470 116.4L468 109.9L56 108.1L20 106.5L16 116.8L22 121L12 122.5L10 126L13 129L22 129L32 130Z"/>
<path d="M44 88.8L62 82.3L145.3 82.3L145.3 109.9L44 109.9Z"/>
<path d="M182.9 82.3L350.1 82.3L350.1 109.9L182.9 109.9Z"/>
<path d="M378.5 84.5L448 89.5L452 109.9L378.5 109.9Z"/>
<path d="M150.3 62.5L150.4 62L150.6 61.5L150.9 61.1L151.3 60.8L151.8 60.6L152.3 60.5L177.9 60.5L177.9 109.9L150.3 109.9Z"/>
<path d="M146.3 62.5L181.9 62.5L181.9 65.9L146.3 65.9Z"/>
<path d="M164.1 50.1L165.7 50.1L165.7 60.5L164.1 60.5Z"/>
<path d="M358.1 63.9L376.5 63.9L373.5 109.9L355.1 109.9Z"/>
</g></svg>
