<svg xmlns="http://www.w3.org/2000/svg" viewBox="0 56 480 77"><g id="sil" fill="currentColor">
<path d="M464 130L470 115.6L468 105.8L56 103.7L20 101.9L16 116.2L22 121L12 122.5L10 126L13 129L22 129L32 130Z"/>
<path d="M394 77.7L394.1 77L394.3 76.4L394.7 75.9L395.3 75.5L395.9 75.3L396.5 75.2L436 75.2L436 105.8L394 105.8Z"/>
<path d="M390 76.8L440 76.8L440 79.8L390 79.8Z"/>
<path d="M419.8 61.5L432.8 61.5L428.8 77.2L415.8 77.2Z"/>
<path d="M54 103.2L388 103.2L388 104.6L54 104.6Z"/>
<path d="M66 104.6L67.6 104.6L67.6 105.8L66 105.8Z"/>
<path d="M100 104.6L101.6 104.6L101.6 105.8L100 105.8Z"/>
<path d="M134 104.6L135.6 104.6L135.6 105.8L134 105.8Z"/>
<path d="M168 104.6L169.6 104.6L169.6 105.8L168 105.8Z"/>
<path d="M202 104.6L203.6 104.6L203.6 105.8L202 105.8Z"/>
<path d="M236 104.6L237.6 104.6L237.6 105.8L236 105.8Z"/>
<path d="M270 104.6L271.6 104.6L271.6 105.8L270 105.8Z"/>
<path d="M304 104.6L305.6 104.6L305.6 105.8L304 105.8Z"/>
<path d="M338 104.6L339.6 104.6L339.6 105.8L338 105.8Z"/>
<path d="M372 104.6L373.6 104.6L373.6 105.8L372 105.8Z"/>
<path d="M218 99.3L246 99.3L246 105.8L218 105.8Z"/>
<path d="M50 87.4L51.6 87.4L51.6 105.8L50 105.8Z"/>
<path d="M40 103.2L40.1 102.7L40.3 102.2L40.6 101.8L41 101.4L41.5 101.2L42 101.2L62 101.2L62 105.8L40 105.8Z"/>
</g></svg>
