<svg xmlns="http://www.w3.org/2000/svg" viewBox="0 26 480 107"><g id="sil" fill="currentColor">
<path d="M464 130L470 114.5L468 100.5L56 97.1L20 94.2L16 115.4L22 121L12 122.5L10 126L13 129L22 129L32 130Z"/>
<path d="M62 77.1L62.3 74.5L63.3 72.1L64.9 70L67 68.4L69.4 67.4L72 67.1L444 67.1L444 100.5L62 100.5Z"/>
<path d="M75 55.6L75.3 53.3L76.2 51.1L77.6 49.2L79.5 47.8L81.7 46.9L84 46.6L436 46.6L436 68.1L75 68.1Z"/>
<path d="M68 52.3L79 52.3L79 57.3L68 57.3Z"/>
<path fill="var(--sil-funnel,inherit)" d="M318.1 31.9L333.1 31.9L329.1 48.6L314.1 48.6Z"/>
<path d="M85 33.9L86.6 33.9L86.6 46.6L85 46.6Z"/>
</g></svg>
