<svg xmlns="http://www.w3.org/2000/svg" viewBox="0 46 480 87"><g id="sil" fill="currentColor">
<path d="M464 130L470 114.8L468 102.2L56 98.2L20 95L14 116.4L36 130Z"/>
<path d="M394 71.6L394.1 71L394.3 70.4L394.7 69.9L395.3 69.5L395.9 69.2L396.5 69.1L436 69.1L436 102.2L394 102.2Z"/>
<path d="M390 70.7L440 70.7L440 73.7L390 73.7Z"/>
<path fill="var(--sil-funnel,inherit)" d="M419.8 51.8L432.8 51.8L428.8 71.1L415.8 71.1Z"/>
<path d="M54 99.6L388 99.6L388 101L54 101Z"/>
<path d="M66 101L67.6 101L67.6 102.2L66 102.2Z"/>
<path d="M100 101L101.6 101L101.6 102.2L100 102.2Z"/>
<path d="M134 101L135.6 101L135.6 102.2L134 102.2Z"/>
<path d="M168 101L169.6 101L169.6 102.2L168 102.2Z"/>
<path d="M202 101L203.6 101L203.6 102.2L202 102.2Z"/>
<path d="M236 101L237.6 101L237.6 102.2L236 102.2Z"/>
<path d="M270 101L271.6 101L271.6 102.2L270 102.2Z"/>
<path d="M304 101L305.6 101L305.6 102.2L304 102.2Z"/>
<path d="M338 101L339.6 101L339.6 102.2L338 102.2Z"/>
<path d="M372 101L373.6 101L373.6 102.2L372 102.2Z"/>
<path d="M50 67.7L51.6 67.7L51.6 102.2L50 102.2Z"/>
<path d="M40 99.6L40.1 99.1L40.3 98.6L40.6 98.2L41 97.9L41.5 97.7L42 97.6L62 97.6L62 102.2L40 102.2Z"/>
</g></svg>
