<svg xmlns="http://www.w3.org/2000/svg" viewBox="0 28 480 105"><g id="sil" fill="currentColor">
<path d="M464 130L470 115.1L468 103.3L56 100.4L20 98L16 115.8L22 121L12 122.5L10 126L13 129L22 129L32 130Z"/>
<path d="M62 76.9L62.3 74.3L63.3 71.9L64.9 69.8L67 68.2L69.4 67.2L72 66.9L444 66.9L444 103.3L62 103.3Z"/>
<path d="M83 53.6L83.3 51.2L84.2 49.1L85.6 47.2L87.5 45.8L89.7 44.9L92 44.6L436 44.6L436 67.9L83 67.9Z"/>
<path d="M76 50.8L87 50.8L87 56.2L76 56.2Z"/>
<path fill="var(--sil-funnel,inherit)" d="M318.1 34.5L333.1 34.5L329.1 46.6L314.1 46.6Z"/>
<path d="M93 33.9L94.6 33.9L94.6 44.6L93 44.6Z"/>
</g></svg>
