<svg xmlns="http://www.w3.org/2000/svg" viewBox="0 22 480 111"><g id="sil" fill="currentColor">
<path d="M464 130L470 115.2L468 104.1L56 101.4L20 99.1L16 115.9L22 121L12 122.5L10 126L13 129L22 129L32 130Z"/>
<path d="M62 73.5L62.3 70.9L63.3 68.5L64.9 66.4L67 64.9L69.4 63.9L72 63.5L444 63.5L444 104.1L62 104.1Z"/>
<path d="M82 47.6L82.3 45.3L83.2 43.1L84.6 41.3L86.5 39.8L88.7 38.9L91 38.6L436 38.6L436 64.5L82 64.5Z"/>
<path d="M75 45.6L86 45.6L86 51.6L75 51.6Z"/>
<path fill="var(--sil-funnel,inherit)" d="M318.1 27.8L333.1 27.8L329.1 40.6L314.1 40.6Z"/>
<path fill="var(--sil-funnel,inherit)" d="M344.1 27.8L359.1 27.8L355.1 40.6L340.1 40.6Z"/>
<path d="M92 28.5L93.6 28.5L93.6 38.6L92 38.6Z"/>
</g></svg>
