<svg xmlns="http://www.w3.org/2000/svg" viewBox="0 45 480 88"><g id="sil" fill="currentColor">
<path d="M464 130L470 116.4L468 109.9L56 108L20 106.5L16 116.8L22 121L12 122.5L10 126L13 129L22 129L32 130Z"/>
<path d="M44 88.7L62 82.3L152.6 82.3L152.6 109.9L44 109.9Z"/>
<path d="M190.2 82.3L357.8 82.3L357.8 109.9L190.2 109.9Z"/>
<path d="M386.2 84.4L448 89.4L452 109.9L386.2 109.9Z"/>
<path d="M157.6 62.4L157.6 61.8L157.8 61.4L158.2 60.9L158.6 60.6L159.1 60.4L159.6 60.4L185.2 60.4L185.2 109.9L157.6 109.9Z"/>
<path d="M153.6 62.4L189.2 62.4L189.2 65.8L153.6 65.8Z"/>
<path d="M171.4 50L173 50L173 60.4L171.4 60.4Z"/>
<path d="M365.8 63.8L384.2 63.8L381.2 109.9L362.8 109.9Z"/>
</g></svg>
