<svg xmlns="http://www.w3.org/2000/svg" viewBox="0 45 480 88"><g id="sil" fill="currentColor">
<path d="M464 130L470 116.4L468 109.9L56 108L20 106.5L16 116.8L22 121L12 122.5L10 126L13 129L22 129L32 130Z"/>
<path d="M44 89.7L62 83.4L152.5 83.4L152.5 109.9L44 109.9Z"/>
<path d="M190.2 83.4L357.6 83.4L357.6 109.9L190.2 109.9Z"/>
<path d="M386 85.5L448 90.3L452 109.9L386 109.9Z"/>
<path d="M157.5 62.4L157.6 61.9L157.8 61.4L158.1 61L158.5 60.7L159 60.5L159.5 60.4L185.2 60.4L185.2 109.9L157.5 109.9Z"/>
<path d="M153.5 62.4L189.2 62.4L189.2 65.8L153.5 65.8Z"/>
<path d="M171.3 50L172.9 50L172.9 60.4L171.3 60.4Z"/>
<path d="M365.6 63.8L384 63.8L381 109.9L362.6 109.9Z"/>
</g></svg>
