<svg xmlns="http://www.w3.org/2000/svg" viewBox="0 28 480 105"><g id="sil" fill="currentColor">
<path d="M464 130L470 114.9L468 102.7L56 99.6L20 97.1L16 115.7L22 121L12 122.5L10 126L13 129L22 129L32 130Z"/>
<path d="M62 77.2L62.3 74.6L63.3 72.2L64.9 70.2L67 68.6L69.4 67.6L72 67.2L444 67.2L444 102.7L62 102.7Z"/>
<path d="M80 54.5L80.3 52.2L81.2 50L82.6 48.2L84.5 46.7L86.7 45.8L89 45.5L436 45.5L436 68.2L80 68.2Z"/>
<path d="M73 51.6L84 51.6L84 56.8L73 56.8Z"/>
<path fill="var(--sil-funnel,inherit)" d="M318.1 33.8L333.1 33.8L329.1 47.5L314.1 47.5Z"/>
<path d="M90 34.4L91.6 34.4L91.6 45.5L90 45.5Z"/>
</g></svg>
