<svg xmlns="http://www.w3.org/2000/svg" viewBox="0 56 480 77"><g id="sil" fill="currentColor">
<path d="M464 130L470 115.6L468 106L56 104.2L20 102.7L16 116.2L22 121L12 122.5L10 126L13 129L22 129L32 130Z"/>
<path d="M52 100L68 98L362 98L370 106L46 106Z"/>
<path d="M386 77.8L386.1 77.2L386.3 76.6L386.7 76.1L387.3 75.7L387.9 75.4L388.5 75.3L432 75.3L432 106L386 106Z"/>
<path d="M382 76.9L436 76.9L436 79.9L382 79.9Z"/>
<path fill="var(--sil-funnel,inherit)" d="M413 61.7L426 61.7L422 77.3L409 77.3Z"/>
<path d="M48 91.3L49.6 91.3L49.6 106L48 106Z"/>
</g></svg>
