<svg xmlns="http://www.w3.org/2000/svg" viewBox="0 42 480 91"><g id="sil" fill="currentColor">
<path d="M464 130L470 116.4L468 109.9L56 108.1L20 106.5L16 116.8L22 121L12 122.5L10 126L13 129L22 129L32 130Z"/>
<path d="M44 85.9L62 78.9L140.7 78.9L140.7 109.9L44 109.9Z"/>
<path d="M178.3 78.9L350.1 78.9L350.1 109.9L178.3 109.9Z"/>
<path d="M378.5 81.2L448 86.7L452 109.9L378.5 109.9Z"/>
<path d="M145.7 60.2L145.8 59.7L146 59.2L146.3 58.8L146.7 58.5L147.2 58.3L147.7 58.2L173.3 58.2L173.3 109.9L145.7 109.9Z"/>
<path d="M141.7 60.2L177.3 60.2L177.3 63.6L141.7 63.6Z"/>
<path d="M159.5 47.8L161.1 47.8L161.1 58.2L159.5 58.2Z"/>
<path fill="var(--sil-funnel,inherit)" d="M358.1 61.8L376.5 61.8L373.5 109.9L355.1 109.9Z"/>
</g></svg>
