<svg xmlns="http://www.w3.org/2000/svg" viewBox="0 26 480 107"><g id="sil" fill="currentColor">
<path d="M464 130L470 115L468 103.1L56 100.1L20 97.6L16 115.8L22 121L12 122.5L10 126L13 129L22 129L32 130Z"/>
<path d="M62 76.9L62.3 74.3L63.3 71.9L64.9 69.8L67 68.2L69.4 67.2L72 66.9L444 66.9L444 103.1L62 103.1Z"/>
<path d="M81 53.7L81.3 51.4L82.2 49.2L83.6 47.4L85.5 45.9L87.7 45L90 44.7L436 44.7L436 67.9L81 67.9Z"/>
<path d="M74 50.9L85 50.9L85 56.3L74 56.3Z"/>
<path fill="var(--sil-funnel,inherit)" d="M318.1 31.9L333.1 31.9L329.1 46.7L314.1 46.7Z"/>
<path d="M91 33.9L92.6 33.9L92.6 44.7L91 44.7Z"/>
</g></svg>
