<svg xmlns="http://www.w3.org/2000/svg" viewBox="0 16 480 117"><g id="sil" fill="currentColor">
<path d="M464 130L470 115L468 102.8L56 99.8L20 97.3L16 115.7L22 121L12 122.5L10 126L13 129L22 129L32 130Z"/>
<path d="M62 69.2L62.3 66.6L63.3 64.2L64.9 62.1L67 60.5L69.4 59.5L72 59.2L444 59.2L444 102.8L62 102.8Z"/>
<path d="M76 41.4L76.3 39.1L77.2 36.9L78.6 35.1L80.5 33.6L82.7 32.7L85 32.4L436 32.4L436 60.2L76 60.2Z"/>
<path d="M69 39.9L80 39.9L80 46.3L69 46.3Z"/>
<path d="M318.1 23.5L333.1 23.5L329.1 34.4L314.1 34.4Z"/>
<path d="M86 21.4L87.6 21.4L87.6 32.4L86 32.4Z"/>
</g></svg>
