<svg xmlns="http://www.w3.org/2000/svg" viewBox="0 17 480 116"><g id="sil" fill="currentColor">
<path d="M464 130L470 114.8L468 102L56 98.8L20 96.2L16 115.6L22 121L12 122.5L10 126L13 129L22 129L32 130Z"/>
<path d="M62 71.3L62.3 68.8L63.3 66.3L64.9 64.3L67 62.7L69.4 61.7L72 61.3L444 61.3L444 102L62 102Z"/>
<path d="M77 45.4L77.3 43.1L78.2 40.9L79.6 39.1L81.5 37.6L83.7 36.7L86 36.4L436 36.4L436 62.3L77 62.3Z"/>
<path d="M70 43.4L81 43.4L81 49.4L70 49.4Z"/>
<path fill="var(--sil-funnel,inherit)" d="M318.1 22.8L333.1 22.8L329.1 38.4L314.1 38.4Z"/>
<path d="M87 24.8L88.6 24.8L88.6 36.4L87 36.4Z"/>
</g></svg>
