<svg xmlns="http://www.w3.org/2000/svg" viewBox="0 20 480 113"><g id="sil" fill="currentColor">
<path d="M464 130L470 114.9L468 102.7L56 99.7L20 97.2L16 115.7L22 121L12 122.5L10 126L13 129L22 129L32 130Z"/>
<path d="M62 73.1L62.3 70.6L63.3 68.1L64.9 66.1L67 64.5L69.4 63.5L72 63.1L444 63.1L444 102.7L62 102.7Z"/>
<path d="M78 47.9L78.3 45.6L79.2 43.4L80.6 41.5L82.5 40.1L84.7 39.2L87 38.9L436 38.9L436 64.1L78 64.1Z"/>
<path d="M71 45.7L82 45.7L82 51.5L71 51.5Z"/>
<path fill="var(--sil-funnel,inherit)" d="M318.1 25.8L333.1 25.8L329.1 40.9L314.1 40.9Z"/>
<path d="M88 27.8L89.6 27.8L89.6 38.9L88 38.9Z"/>
</g></svg>
