<svg xmlns="http://www.w3.org/2000/svg" viewBox="0 25 480 108"><g id="sil" fill="currentColor">
<path d="M464 130L470 114.9L468 102.3L56 99.2L20 96.6L16 115.7L22 121L12 122.5L10 126L13 129L22 129L32 130Z"/>
<path d="M62 76.1L62.3 73.5L63.3 71.1L64.9 69.1L67 67.5L69.4 66.5L72 66.1L444 66.1L444 102.3L62 102.3Z"/>
<path d="M80 52.9L80.3 50.6L81.2 48.4L82.6 46.6L84.5 45.2L86.7 44.3L89 43.9L436 43.9L436 67.1L80 67.1Z"/>
<path d="M73 50.2L84 50.2L84 55.5L73 55.5Z"/>
<path fill="var(--sil-funnel,inherit)" d="M318.1 30.6L333.1 30.6L329.1 45.9L314.1 45.9Z"/>
<path d="M90 32.6L91.6 32.6L91.6 43.9L90 43.9Z"/>
</g></svg>
