<svg xmlns="http://www.w3.org/2000/svg" viewBox="0 28 480 105"><g id="sil" fill="currentColor">
<path d="M464 130L470 114.5L468 100.3L56 96.7L20 93.8L16 115.3L22 121L12 122.5L10 126L13 129L22 129L32 130Z"/>
<path d="M62 77.3L62.3 74.7L63.3 72.3L64.9 70.2L67 68.6L69.4 67.6L72 67.3L444 67.3L444 100.3L62 100.3Z"/>
<path d="M82 56.1L82.3 53.7L83.2 51.6L84.6 49.7L86.5 48.3L88.7 47.4L91 47.1L436 47.1L436 68.3L82 68.3Z"/>
<path d="M75 52.7L86 52.7L86 57.6L75 57.6Z"/>
<path fill="var(--sil-funnel,inherit)" d="M318.1 33.8L333.1 33.8L329.1 49.1L314.1 49.1Z"/>
<path d="M92 34.2L93.6 34.2L93.6 47.1L92 47.1Z"/>
</g></svg>
