<svg xmlns="http://www.w3.org/2000/svg" viewBox="0 27 480 106"><g id="sil" fill="currentColor">
<path d="M464 130L470 114.6L468 101L56 97.6L20 94.8L16 115.4L22 121L12 122.5L10 126L13 129L22 129L32 130Z"/>
<path d="M62 76.4L62.3 73.8L63.3 71.4L64.9 69.4L67 67.8L69.4 66.8L72 66.4L444 66.4L444 101L62 101Z"/>
<path d="M88 54.3L88.3 51.9L89.2 49.8L90.6 47.9L92.5 46.5L94.7 45.6L97 45.3L436 45.3L436 67.4L88 67.4Z"/>
<path d="M81 51.2L92 51.2L92 56.3L81 56.3Z"/>
<path fill="var(--sil-funnel,inherit)" d="M318.1 32.4L333.1 32.4L329.1 47.3L314.1 47.3Z"/>
<path d="M98 32.9L99.6 32.9L99.6 45.3L98 45.3Z"/>
</g></svg>
