<svg xmlns="http://www.w3.org/2000/svg" viewBox="0 30 480 103"><g id="sil" fill="currentColor">
<path d="M464 130L470 114.4L468 100.2L56 96.7L20 93.8L16 115.3L22 121L12 122.5L10 126L13 129L22 129L32 130Z"/>
<path d="M62 78.2L62.3 75.6L63.3 73.2L64.9 71.2L67 69.6L69.4 68.6L72 68.2L444 68.2L444 100.2L62 100.2Z"/>
<path d="M79 57.6L79.3 55.3L80.2 53.1L81.6 51.2L83.5 49.8L85.7 48.9L88 48.6L436 48.6L436 69.2L79 69.2Z"/>
<path d="M72 54.1L83 54.1L83 58.8L72 58.8Z"/>
<path fill="var(--sil-funnel,inherit)" d="M318.1 35.3L333.1 35.3L329.1 50.6L314.1 50.6Z"/>
<path d="M89 35.7L90.6 35.7L90.6 48.6L89 48.6Z"/>
</g></svg>
