<svg xmlns="http://www.w3.org/2000/svg" viewBox="0 20 480 113"><g id="sil" fill="currentColor">
<path d="M464 130L470 114.6L468 100.8L56 97.3L20 94.5L16 115.4L22 121L12 122.5L10 126L13 129L22 129L32 130Z"/>
<path d="M62 73L62.3 70.4L63.3 68L64.9 65.9L67 64.3L69.4 63.3L72 63L444 63L444 100.8L62 100.8Z"/>
<path d="M75 48.8L75.3 46.4L76.2 44.3L77.6 42.4L79.5 41L81.7 40.1L84 39.8L436 39.8L436 64L75 64Z"/>
<path d="M68 46.3L79 46.3L79 51.8L68 51.8Z"/>
<path fill="var(--sil-funnel,inherit)" d="M318.1 25.3L333.1 25.3L329.1 41.8L314.1 41.8Z"/>
<path d="M85 27.3L86.6 27.3L86.6 39.8L85 39.8Z"/>
</g></svg>
