<svg xmlns="http://www.w3.org/2000/svg" viewBox="0 25 480 108"><g id="sil" fill="currentColor">
<path d="M464 130L470 115L468 102.8L56 99.8L20 97.3L16 115.7L22 121L12 122.5L10 126L13 129L22 129L32 130Z"/>
<path d="M62 76L62.3 73.5L63.3 71L64.9 69L67 67.4L69.4 66.4L72 66L444 66L444 102.8L62 102.8Z"/>
<path d="M78 52.5L78.3 50.2L79.2 48L80.6 46.1L82.5 44.7L84.7 43.8L87 43.5L436 43.5L436 67L78 67Z"/>
<path d="M71 49.8L82 49.8L82 55.2L71 55.2Z"/>
<path fill="var(--sil-funnel,inherit)" d="M318.1 30.5L333.1 30.5L329.1 45.5L314.1 45.5Z"/>
<path d="M88 32.5L89.6 32.5L89.6 43.5L88 43.5Z"/>
</g></svg>
