<svg xmlns="http://www.w3.org/2000/svg" viewBox="0 25 480 108"><g id="sil" fill="currentColor">
<path d="M464 130L470 114.9L468 102.4L56 99.3L20 96.7L16 115.7L22 121L12 122.5L10 126L13 129L22 129L32 130Z"/>
<path d="M62 76.3L62.3 73.7L63.3 71.3L64.9 69.2L67 67.6L69.4 66.6L72 66.3L444 66.3L444 102.4L62 102.4Z"/>
<path d="M77 53.2L77.3 50.8L78.2 48.7L79.6 46.8L81.5 45.4L83.7 44.5L86 44.2L436 44.2L436 67.3L77 67.3Z"/>
<path d="M70 50.4L81 50.4L81 55.7L70 55.7Z"/>
<path fill="var(--sil-funnel,inherit)" d="M318.1 30.8L333.1 30.8L329.1 46.2L314.1 46.2Z"/>
<path d="M87 32.8L88.6 32.8L88.6 44.2L87 44.2Z"/>
</g></svg>
