<svg xmlns="http://www.w3.org/2000/svg" viewBox="0 24 480 109"><g id="sil" fill="currentColor">
<path d="M464 130L470 114.9L468 102.5L56 99.4L20 96.8L16 115.7L22 121L12 122.5L10 126L13 129L22 129L32 130Z"/>
<path d="M62 75.7L62.3 73.1L63.3 70.7L64.9 68.6L67 67.1L69.4 66.1L72 65.7L444 65.7L444 102.5L62 102.5Z"/>
<path d="M78 52.2L78.3 49.9L79.2 47.7L80.6 45.8L82.5 44.4L84.7 43.5L87 43.2L436 43.2L436 66.7L78 66.7Z"/>
<path d="M71 49.5L82 49.5L82 54.9L71 54.9Z"/>
<path fill="var(--sil-funnel,inherit)" d="M318.1 29.9L333.1 29.9L329.1 45.2L314.1 45.2Z"/>
<path d="M88 31.9L89.6 31.9L89.6 43.2L88 43.2Z"/>
</g></svg>
