<svg xmlns="http://www.w3.org/2000/svg" viewBox="0 23 480 110"><g id="sil" fill="currentColor">
<path d="M464 130L470 114.9L468 102.6L56 99.6L20 97.1L16 115.7L22 121L12 122.5L10 126L13 129L22 129L32 130Z"/>
<path d="M62 74.5L62.3 72L63.3 69.5L64.9 67.5L67 65.9L69.4 64.9L72 64.5L444 64.5L444 102.6L62 102.6Z"/>
<path d="M80 50.2L80.3 47.9L81.2 45.7L82.6 43.8L84.5 42.4L86.7 41.5L89 41.2L436 41.2L436 65.5L80 65.5Z"/>
<path d="M73 47.7L84 47.7L84 53.3L73 53.3Z"/>
<path fill="var(--sil-funnel,inherit)" d="M318.1 28L333.1 28L329.1 43.2L314.1 43.2Z"/>
<path d="M90 30L91.6 30L91.6 41.2L90 41.2Z"/>
</g></svg>
