<svg xmlns="http://www.w3.org/2000/svg" viewBox="0 23 480 110"><g id="sil" fill="currentColor">
<path d="M464 130L470 114.9L468 102.3L56 99.1L20 96.6L16 115.6L22 121L12 122.5L10 126L13 129L22 129L32 130Z"/>
<path d="M62 73.3L62.3 70.7L63.3 68.3L64.9 66.2L67 64.7L69.4 63.7L72 63.3L444 63.3L444 102.3L62 102.3Z"/>
<path d="M76 48.4L76.3 46.1L77.2 43.9L78.6 42.1L80.5 40.6L82.7 39.7L85 39.4L436 39.4L436 64.3L76 64.3Z"/>
<path d="M69 46.1L80 46.1L80 51.8L69 51.8Z"/>
<path fill="var(--sil-funnel,inherit)" d="M318.1 28.9L333.1 28.9L329.1 41.4L314.1 41.4Z"/>
<path d="M86 28L87.6 28L87.6 39.4L86 39.4Z"/>
</g></svg>
