<svg xmlns="http://www.w3.org/2000/svg" viewBox="0 26 480 107"><g id="sil" fill="currentColor">
<path d="M464 130L470 115.2L468 103.9L56 101.1L20 98.8L16 115.9L22 121L12 122.5L10 126L13 129L22 129L32 130Z"/>
<path d="M62 75.1L62.3 72.5L63.3 70.1L64.9 68.1L67 66.5L69.4 65.5L72 65.1L444 65.1L444 103.9L62 103.9Z"/>
<path d="M78 50.3L78.3 48L79.2 45.8L80.6 44L82.5 42.5L84.7 41.6L87 41.3L436 41.3L436 66.1L78 66.1Z"/>
<path d="M71 48L82 48L82 53.7L71 53.7Z"/>
<path d="M318.1 32.9L333.1 32.9L329.1 43.3L314.1 43.3Z"/>
<path d="M344.1 32.9L359.1 32.9L355.1 43.3L340.1 43.3Z"/>
<path d="M88 31.1L89.6 31.1L89.6 41.3L88 41.3Z"/>
</g></svg>
