<svg xmlns="http://www.w3.org/2000/svg" viewBox="0 45 480 88"><g id="sil" fill="currentColor">
<path d="M464 130L470 116.4L468 109.9L56 108L20 106.5L16 116.8L22 121L12 122.5L10 126L13 129L22 129L32 130Z"/>
<path d="M44 88.8L62 82.3L147.6 82.3L147.6 109.9L44 109.9Z"/>
<path d="M185.3 82.3L347.8 82.3L347.8 109.9L185.3 109.9Z"/>
<path d="M376.2 84.5L448 89.5L452 109.9L376.2 109.9Z"/>
<path d="M152.6 62.5L152.7 62L152.9 61.5L153.2 61.1L153.6 60.7L154.1 60.5L154.6 60.5L180.3 60.5L180.3 109.9L152.6 109.9Z"/>
<path d="M148.6 62.5L184.3 62.5L184.3 65.9L148.6 65.9Z"/>
<path d="M166.5 50.1L168.1 50.1L168.1 60.5L166.5 60.5Z"/>
<path d="M355.8 63.9L374.2 63.9L371.2 109.9L352.8 109.9Z"/>
</g></svg>
