<svg xmlns="http://www.w3.org/2000/svg" viewBox="0 64 480 69"><g id="sil" fill="currentColor">
<path d="M464 130L470 116.2L468 109.1L56 107.6L20 106.3L16 116.7L22 121L12 122.5L10 126L13 129L22 129L32 130Z"/>
<path d="M394 83.9L394.1 83.2L394.3 82.6L394.7 82.1L395.3 81.7L395.9 81.4L396.5 81.4L436 81.4L436 109.1L394 109.1Z"/>
<path d="M390 83L440 83L440 86L390 86Z"/>
<path d="M419.8 69.5L432.8 69.5L428.8 83.4L415.8 83.4Z"/>
<path d="M54 106.5L388 106.5L388 107.9L54 107.9Z"/>
<path d="M66 107.9L67.6 107.9L67.6 109.1L66 109.1Z"/>
<path d="M100 107.9L101.6 107.9L101.6 109.1L100 109.1Z"/>
<path d="M134 107.9L135.6 107.9L135.6 109.1L134 109.1Z"/>
<path d="M168 107.9L169.6 107.9L169.6 109.1L168 109.1Z"/>
<path d="M202 107.9L203.6 107.9L203.6 109.1L202 109.1Z"/>
<path d="M236 107.9L237.6 107.9L237.6 109.1L236 109.1Z"/>
<path d="M270 107.9L271.6 107.9L271.6 109.1L270 109.1Z"/>
<path d="M304 107.9L305.6 107.9L305.6 109.1L304 109.1Z"/>
<path d="M338 107.9L339.6 107.9L339.6 109.1L338 109.1Z"/>
<path d="M372 107.9L373.6 107.9L373.6 109.1L372 109.1Z"/>
<path d="M218 102.6L246 102.6L246 109.1L218 109.1Z"/>
<path d="M50 95.8L51.6 95.8L51.6 109.1L50 109.1Z"/>
<path d="M40 106.5L40.1 106L40.3 105.5L40.6 105.1L41 104.8L41.5 104.6L42 104.5L62 104.5L62 109.1L40 109.1Z"/>
</g></svg>
