<svg xmlns="http://www.w3.org/2000/svg" viewBox="0 26 480 107"><g id="sil" fill="currentColor">
<path d="M464 131L470 115L468 102.9L56 102.9L20 102.9L14 116.5L36 131Z"/>
<path d="M70 74.9L70.1 74.5L70.2 74.1L70.4 73.8L70.8 73.6L71.1 73.4L71.5 73.4L96 73.4L96 102.9L70 102.9Z"/>
<path d="M104 72.4L104.1 72L104.2 71.6L104.4 71.3L104.8 71.1L105.1 70.9L105.5 70.9L150 70.9L150 102.9L104 102.9Z"/>
<path d="M158 75.9L158.1 75.5L158.2 75.1L158.4 74.8L158.8 74.6L159.1 74.4L159.5 74.4L210 74.4L210 102.9L158 102.9Z"/>
<path d="M218 73.4L218.1 73L218.2 72.6L218.4 72.3L218.8 72.1L219.1 71.9L219.5 71.9L268 71.9L268 102.9L218 102.9Z"/>
<path d="M276 76.4L276.1 76L276.2 75.6L276.4 75.3L276.8 75.1L277.1 74.9L277.5 74.9L330 74.9L330 102.9L276 102.9Z"/>
<path d="M338 72.4L338.1 72L338.2 71.6L338.4 71.3L338.8 71.1L339.1 70.9L339.5 70.9L386 70.9L386 102.9L338 102.9Z"/>
<path d="M34 59.6L46 59.6L50 102.9L30 102.9Z"/>
<path d="M418 31.3L423 31.3L434 102.9L426 102.9Z"/>
<path d="M52 79L52.1 78.4L52.3 77.8L52.7 77.3L53.3 76.9L53.9 76.6L54.5 76.5L78 76.5L78 102.9L52 102.9Z"/>
</g></svg>
