<svg xmlns="http://www.w3.org/2000/svg" viewBox="0 32 480 101"><g id="sil" fill="currentColor">
<path d="M464 130L470 114.9L468 102.3L56 99.2L20 96.6L16 115.6L22 121L12 122.5L10 126L13 129L22 129L32 130Z"/>
<path d="M62 79.6L62.3 77L63.3 74.6L64.9 72.5L67 70.9L69.4 69.9L72 69.6L444 69.6L444 102.3L62 102.3Z"/>
<path d="M78 58.5L78.3 56.2L79.2 54L80.6 52.2L82.5 50.7L84.7 49.8L87 49.5L436 49.5L436 70.6L78 70.6Z"/>
<path d="M71 55.2L82 55.2L82 60L71 60Z"/>
<path fill="var(--sil-funnel,inherit)" d="M318.1 37.6L333.1 37.6L329.1 51.5L314.1 51.5Z"/>
<path d="M88 38.1L89.6 38.1L89.6 49.5L88 49.5Z"/>
</g></svg>
