<svg xmlns="http://www.w3.org/2000/svg" viewBox="0 29 480 104"><g id="sil" fill="currentColor">
<path d="M464 130L470 114.6L468 100.8L56 97.3L20 94.5L16 115.4L22 121L12 122.5L10 126L13 129L22 129L32 130Z"/>
<path d="M62 77.8L62.3 75.2L63.3 72.8L64.9 70.7L67 69.1L69.4 68.1L72 67.8L444 67.8L444 100.8L62 100.8Z"/>
<path d="M76 56.6L76.3 54.3L77.2 52.1L78.6 50.2L80.5 48.8L82.7 47.9L85 47.6L436 47.6L436 68.8L76 68.8Z"/>
<path d="M69 53.3L80 53.3L80 58.1L69 58.1Z"/>
<path fill="var(--sil-funnel,inherit)" d="M318.1 34.6L333.1 34.6L329.1 49.6L314.1 49.6Z"/>
<path d="M86 35.1L87.6 35.1L87.6 47.6L86 47.6Z"/>
</g></svg>
