<svg xmlns="http://www.w3.org/2000/svg" viewBox="0 22 480 111"><g id="sil" fill="currentColor">
<path d="M464 130L470 114.8L468 102L56 98.3L20 95.3L14 116.4L36 130Z"/>
<path d="M74 75L74.2 73.7L74.7 72.5L75.5 71.5L76.5 70.7L77.7 70.2L79 70L430 70L430 102L74 102Z"/>
<path d="M92 52.7L92.1 51.6L92.5 50.7L93.2 49.8L94 49.2L95 48.8L96 48.7L408 48.7L408 71.1L92 71.1Z"/>
<path fill="var(--sil-funnel,inherit)" d="M253 32.3L266 32.3L261 50.7L248 50.7Z"/>
<path d="M68 27.3L69.6 27.3L69.6 102L68 102Z"/>
<path d="M418 32.7L419.6 32.7L419.6 102L418 102Z"/>
</g></svg>
