<svg xmlns="http://www.w3.org/2000/svg" viewBox="0 28 480 105"><g id="sil" fill="currentColor">
<path d="M464 130L470 114.6L468 101.1L56 97.7L20 95L16 115.5L22 121L12 122.5L10 126L13 129L22 129L32 130Z"/>
<path d="M62 76.9L62.3 74.3L63.3 71.9L64.9 69.8L67 68.2L69.4 67.2L72 66.9L444 66.9L444 101.1L62 101.1Z"/>
<path d="M88 54.9L88.3 52.6L89.2 50.4L90.6 48.5L92.5 47.1L94.7 46.2L97 45.9L436 45.9L436 67.9L88 67.9Z"/>
<path d="M81 51.8L92 51.8L92 56.8L81 56.8Z"/>
<path d="M318.1 33.1L333.1 33.1L329.1 47.9L314.1 47.9Z"/>
<path d="M98 33.6L99.6 33.6L99.6 45.9L98 45.9Z"/>
</g></svg>
