<svg xmlns="http://www.w3.org/2000/svg" viewBox="0 23 480 110"><g id="sil" fill="currentColor">
<path d="M464 130L470 114.5L468 100.6L56 97.1L20 94.2L16 115.4L22 121L12 122.5L10 126L13 129L22 129L32 130Z"/>
<path d="M62 75.1L62.3 72.6L63.3 70.1L64.9 68.1L67 66.5L69.4 65.5L72 65.1L444 65.1L444 100.6L62 100.6Z"/>
<path d="M77 52.4L77.3 50.1L78.2 47.9L79.6 46.1L81.5 44.7L83.7 43.8L86 43.4L436 43.4L436 66.1L77 66.1Z"/>
<path d="M70 49.5L81 49.5L81 54.7L70 54.7Z"/>
<path fill="var(--sil-funnel,inherit)" d="M318.1 28.8L333.1 28.8L329.1 45.4L314.1 45.4Z"/>
<path d="M87 30.8L88.6 30.8L88.6 43.4L87 43.4Z"/>
</g></svg>
