<svg xmlns="http://www.w3.org/2000/svg" viewBox="0 25 480 108"><g id="sil" fill="currentColor">
<path d="M464 130L470 114.5L468 100.6L56 97.1L20 94.2L16 115.4L22 121L12 122.5L10 126L13 129L22 129L32 130Z"/>
<path d="M62 76.2L62.3 73.6L63.3 71.2L64.9 69.1L67 67.5L69.4 66.5L72 66.2L444 66.2L444 100.6L62 100.6Z"/>
<path d="M76 54.1L76.3 51.8L77.2 49.6L78.6 47.7L80.5 46.3L82.7 45.4L85 45.1L436 45.1L436 67.2L76 67.2Z"/>
<path d="M69 51L80 51L80 56L69 56Z"/>
<path fill="var(--sil-funnel,inherit)" d="M318.1 30.4L333.1 30.4L329.1 47.1L314.1 47.1Z"/>
<path d="M86 32.4L87.6 32.4L87.6 45.1L86 45.1Z"/>
</g></svg>
