<svg xmlns="http://www.w3.org/2000/svg" viewBox="0 67 480 66"><g id="sil" fill="currentColor">
<path d="M464 130L470 116.4L468 110L56 108.6L20 107.5L16 116.8L22 121L12 122.5L10 126L13 129L22 129L32 130Z"/>
<path d="M394 86.4L394.1 85.7L394.3 85.1L394.7 84.6L395.3 84.2L395.9 84L396.5 83.9L436 83.9L436 110L394 110Z"/>
<path d="M390 85.5L440 85.5L440 88.5L390 88.5Z"/>
<path fill="var(--sil-funnel,inherit)" d="M419.8 72.9L432.8 72.9L428.8 85.9L415.8 85.9Z"/>
<path d="M54 107.4L388 107.4L388 108.8L54 108.8Z"/>
<path d="M66 108.8L67.6 108.8L67.6 110L66 110Z"/>
<path d="M100 108.8L101.6 108.8L101.6 110L100 110Z"/>
<path d="M134 108.8L135.6 108.8L135.6 110L134 110Z"/>
<path d="M168 108.8L169.6 108.8L169.6 110L168 110Z"/>
<path d="M202 108.8L203.6 108.8L203.6 110L202 110Z"/>
<path d="M236 108.8L237.6 108.8L237.6 110L236 110Z"/>
<path d="M270 108.8L271.6 108.8L271.6 110L270 110Z"/>
<path d="M304 108.8L305.6 108.8L305.6 110L304 110Z"/>
<path d="M338 108.8L339.6 108.8L339.6 110L338 110Z"/>
<path d="M372 108.8L373.6 108.8L373.6 110L372 110Z"/>
<path d="M218 103.5L246 103.5L246 110L218 110Z"/>
<path d="M50 97.9L51.6 97.9L51.6 110L50 110Z"/>
<path d="M40 107.4L40.1 106.9L40.3 106.4L40.6 106L41 105.6L41.5 105.4L42 105.4L62 105.4L62 110L40 110Z"/>
</g></svg>
