<svg xmlns="http://www.w3.org/2000/svg" viewBox="0 22 480 111"><g id="sil" fill="currentColor">
<path d="M464 130L470 115.2L468 104.1L56 101.4L20 99.1L16 115.9L22 121L12 122.5L10 126L13 129L22 129L32 130Z"/>
<path d="M62 73.5L62.3 70.9L63.3 68.5L64.9 66.4L67 64.8L69.4 63.8L72 63.5L444 63.5L444 104.1L62 104.1Z"/>
<path d="M82 47.5L82.3 45.2L83.2 43L84.6 41.2L86.5 39.8L88.7 38.9L91 38.5L436 38.5L436 64.5L82 64.5Z"/>
<path d="M75 45.5L86 45.5L86 51.5L75 51.5Z"/>
<path fill="var(--sil-funnel,inherit)" d="M318.1 27.7L333.1 27.7L329.1 40.5L314.1 40.5Z"/>
<path fill="var(--sil-funnel,inherit)" d="M344.1 27.7L359.1 27.7L355.1 40.5L340.1 40.5Z"/>
<path d="M92 28.5L93.6 28.5L93.6 38.5L92 38.5Z"/>
</g></svg>
