<svg xmlns="http://www.w3.org/2000/svg" viewBox="0 27 480 106"><g id="sil" fill="currentColor">
<path d="M464 130L470 115.1L468 103.3L56 100.4L20 98L16 115.8L22 121L12 122.5L10 126L13 129L22 129L32 130Z"/>
<path d="M62 76.2L62.3 73.6L63.3 71.2L64.9 69.1L67 67.5L69.4 66.5L72 66.2L444 66.2L444 103.3L62 103.3Z"/>
<path d="M84 52.4L84.3 50.1L85.2 47.9L86.6 46L88.5 44.6L90.7 43.7L93 43.4L436 43.4L436 67.2L84 67.2Z"/>
<path d="M77 49.8L88 49.8L88 55.2L77 55.2Z"/>
<path fill="var(--sil-funnel,inherit)" d="M318.1 33.4L333.1 33.4L329.1 45.4L314.1 45.4Z"/>
<path d="M94 32.7L95.6 32.7L95.6 43.4L94 43.4Z"/>
</g></svg>
