<svg xmlns="http://www.w3.org/2000/svg" viewBox="0 26 480 107"><g id="sil" fill="currentColor">
<path d="M464 130L470 115.2L468 104L56 101.2L20 98.9L16 115.9L22 121L12 122.5L10 126L13 129L22 129L32 130Z"/>
<path d="M62 75.3L62.3 72.7L63.3 70.3L64.9 68.2L67 66.6L69.4 65.6L72 65.3L444 65.3L444 104L62 104Z"/>
<path d="M78 50.5L78.3 48.2L79.2 46L80.6 44.2L82.5 42.8L84.7 41.9L87 41.5L436 41.5L436 66.3L78 66.3Z"/>
<path d="M71 48.2L82 48.2L82 53.9L71 53.9Z"/>
<path fill="var(--sil-funnel,inherit)" d="M318.1 31.9L333.1 31.9L329.1 43.5L314.1 43.5Z"/>
<path fill="var(--sil-funnel,inherit)" d="M344.1 31.9L359.1 31.9L355.1 43.5L340.1 43.5Z"/>
<path d="M88 31.4L89.6 31.4L89.6 41.5L88 41.5Z"/>
</g></svg>
