<svg xmlns="http://www.w3.org/2000/svg" viewBox="0 61 480 72"><g id="sil" fill="currentColor">
<path d="M464 130L470 116.1L468 108.3L56 106.7L20 105.3L16 116.5L22 121L12 122.5L10 126L13 129L22 129L32 130Z"/>
<path d="M394 81.8L394.1 81.1L394.3 80.5L394.7 80L395.3 79.6L395.9 79.3L396.5 79.3L436 79.3L436 108.3L394 108.3Z"/>
<path d="M390 80.9L440 80.9L440 83.9L390 83.9Z"/>
<path d="M419.8 66.6L432.8 66.6L428.8 81.3L415.8 81.3Z"/>
<path d="M54 105.7L388 105.7L388 107.1L54 107.1Z"/>
<path d="M66 107.1L67.6 107.1L67.6 108.3L66 108.3Z"/>
<path d="M100 107.1L101.6 107.1L101.6 108.3L100 108.3Z"/>
<path d="M134 107.1L135.6 107.1L135.6 108.3L134 108.3Z"/>
<path d="M168 107.1L169.6 107.1L169.6 108.3L168 108.3Z"/>
<path d="M202 107.1L203.6 107.1L203.6 108.3L202 108.3Z"/>
<path d="M236 107.1L237.6 107.1L237.6 108.3L236 108.3Z"/>
<path d="M270 107.1L271.6 107.1L271.6 108.3L270 108.3Z"/>
<path d="M304 107.1L305.6 107.1L305.6 108.3L304 108.3Z"/>
<path d="M338 107.1L339.6 107.1L339.6 108.3L338 108.3Z"/>
<path d="M372 107.1L373.6 107.1L373.6 108.3L372 108.3Z"/>
<path d="M218 101.8L246 101.8L246 108.3L218 108.3Z"/>
<path d="M50 93.8L51.6 93.8L51.6 108.3L50 108.3Z"/>
<path d="M40 105.7L40.1 105.2L40.3 104.7L40.6 104.3L41 104L41.5 103.8L42 103.7L62 103.7L62 108.3L40 108.3Z"/>
</g></svg>
