<svg xmlns="http://www.w3.org/2000/svg" viewBox="0 19 480 114"><g id="sil" fill="currentColor">
<path d="M456 130L466 122.2L470 110.3L464 100.9L56 96.2L20 92.4L14 116.3L36 130Z"/>
<path d="M102 83.3L102.2 82L102.7 80.8L103.5 79.8L104.5 79L105.7 78.5L107 78.3L392 78.3L392 100.9L102 100.9Z"/>
<path d="M120 67.3L120.1 66.3L120.5 65.3L121.2 64.5L122 63.8L123 63.4L124 63.3L370 63.3L370 79.1L120 79.1Z"/>
<path fill="var(--sil-funnel,inherit)" d="M133 24.4L146 24.4L141 65.3L128 65.3Z"/>
<path fill="var(--sil-funnel,inherit)" d="M209.7 24.4L222.7 24.4L217.7 65.3L204.7 65.3Z"/>
<path fill="var(--sil-funnel,inherit)" d="M286.3 24.4L299.3 24.4L294.3 65.3L281.3 65.3Z"/>
<path fill="var(--sil-funnel,inherit)" d="M363 24.4L376 24.4L371 65.3L358 65.3Z"/>
<path d="M68 35.9L69.6 35.9L69.6 100.9L68 100.9Z"/>
<path d="M418 42.8L419.6 42.8L419.6 100.9L418 100.9Z"/>
</g></svg>
