<svg xmlns="http://www.w3.org/2000/svg" viewBox="0 61 480 72"><g id="sil" fill="currentColor">
<path d="M464 130L470 116L468 107.8L56 106.1L20 104.7L16 116.5L22 121L12 122.5L10 126L13 129L22 129L32 130Z"/>
<path d="M396 81.1L396.1 80.5L396.3 79.9L396.7 79.3L397.3 78.9L397.9 78.7L398.5 78.6L436 78.6L436 107.8L396 107.8Z"/>
<path d="M392 80.2L440 80.2L440 83.2L392 83.2Z"/>
<path fill="var(--sil-funnel,inherit)" d="M420.8 66.7L433.8 66.7L429.8 80.6L416.8 80.6Z"/>
<path d="M57 104.3L57.1 103.9L57.2 103.6L57.4 103.3L57.8 103L58.1 102.9L58.5 102.8L87.7 102.8L87.7 107.8L57 107.8Z"/>
<path d="M93.7 104.3L93.7 103.9L93.9 103.6L94.1 103.3L94.4 103L94.8 102.9L95.2 102.8L124.3 102.8L124.3 107.8L93.7 107.8Z"/>
<path d="M130.3 104.3L130.4 103.9L130.5 103.6L130.8 103.3L131.1 103L131.4 102.9L131.8 102.8L161 102.8L161 107.8L130.3 107.8Z"/>
<path d="M167 104.3L167.1 103.9L167.2 103.6L167.4 103.3L167.8 103L168.1 102.9L168.5 102.8L197.7 102.8L197.7 107.8L167 107.8Z"/>
<path d="M203.7 104.3L203.7 103.9L203.9 103.6L204.1 103.3L204.4 103L204.8 102.9L205.2 102.8L234.3 102.8L234.3 107.8L203.7 107.8Z"/>
<path d="M240.3 104.3L240.4 103.9L240.5 103.6L240.8 103.3L241.1 103L241.4 102.9L241.8 102.8L271 102.8L271 107.8L240.3 107.8Z"/>
<path d="M277 104.3L277.1 103.9L277.2 103.6L277.4 103.3L277.8 103L278.1 102.9L278.5 102.8L307.7 102.8L307.7 107.8L277 107.8Z"/>
<path d="M313.7 104.3L313.7 103.9L313.9 103.6L314.1 103.3L314.4 103L314.8 102.9L315.2 102.8L344.3 102.8L344.3 107.8L313.7 107.8Z"/>
<path d="M350.3 104.3L350.4 103.9L350.5 103.6L350.8 103.3L351.1 103L351.4 102.9L351.8 102.8L381 102.8L381 107.8L350.3 107.8Z"/>
<path d="M50 93.9L51.6 93.9L51.6 107.8L50 107.8Z"/>
<path d="M40 105.2L40.1 104.7L40.3 104.2L40.6 103.8L41 103.5L41.5 103.3L42 103.2L62 103.2L62 107.8L40 107.8Z"/>
</g></svg>
