<svg xmlns="http://www.w3.org/2000/svg" viewBox="0 24 480 109"><g id="sil" fill="currentColor">
<path d="M464 130L470 114.5L468 100.5L56 97L20 94.1L16 115.4L22 121L12 122.5L10 126L13 129L22 129L32 130Z"/>
<path d="M62 75.9L62.3 73.3L63.3 70.9L64.9 68.8L67 67.2L69.4 66.2L72 65.9L444 65.9L444 100.5L62 100.5Z"/>
<path d="M76 53.7L76.3 51.4L77.2 49.2L78.6 47.3L80.5 45.9L82.7 45L85 44.7L436 44.7L436 66.9L76 66.9Z"/>
<path d="M69 50.6L80 50.6L80 55.7L69 55.7Z"/>
<path fill="var(--sil-funnel,inherit)" d="M318.1 29.9L333.1 29.9L329.1 46.7L314.1 46.7Z"/>
<path d="M86 31.9L87.6 31.9L87.6 44.7L86 44.7Z"/>
</g></svg>
