<svg xmlns="http://www.w3.org/2000/svg" viewBox="0 24 480 109"><g id="sil" fill="currentColor">
<path d="M464 130L470 113.7L468 96.7L56 92.5L20 89L16 114.8L22 121L12 122.5L10 126L13 129L22 129L32 130Z"/>
<path d="M62 74.4L62.3 71.8L63.3 69.4L64.9 67.3L67 65.7L69.4 64.7L72 64.4L444 64.4L444 96.7L62 96.7Z"/>
<path d="M74 53.5L74.3 51.2L75.2 49L76.6 47.2L78.5 45.7L80.7 44.8L83 44.5L436 44.5L436 65.4L74 65.4Z"/>
<path d="M67 50.1L78 50.1L78 54.8L67 54.8Z"/>
<path fill="var(--sil-funnel,inherit)" d="M318.1 29L333.1 29L329.1 46.5L314.1 46.5Z"/>
<path d="M84 29.1L85.6 29.1L85.6 44.5L84 44.5Z"/>
</g></svg>
