<svg xmlns="http://www.w3.org/2000/svg" viewBox="0 26 480 107"><g id="sil" fill="currentColor">
<path d="M464 130L470 115.2L468 104L56 101.2L20 98.9L16 115.9L22 121L12 122.5L10 126L13 129L22 129L32 130Z"/>
<path d="M62 75.4L62.3 72.8L63.3 70.4L64.9 68.4L67 66.8L69.4 65.8L72 65.4L444 65.4L444 104L62 104Z"/>
<path d="M78 50.8L78.3 48.4L79.2 46.3L80.6 44.4L82.5 43L84.7 42.1L87 41.8L436 41.8L436 66.4L78 66.4Z"/>
<path d="M71 48.4L82 48.4L82 54.1L71 54.1Z"/>
<path fill="var(--sil-funnel,inherit)" d="M318.1 32.1L333.1 32.1L329.1 43.8L314.1 43.8Z"/>
<path fill="var(--sil-funnel,inherit)" d="M344.1 32.1L359.1 32.1L355.1 43.8L340.1 43.8Z"/>
<path d="M88 31.6L89.6 31.6L89.6 41.8L88 41.8Z"/>
</g></svg>
