<svg xmlns="http://www.w3.org/2000/svg" viewBox="0 23 480 110"><g id="sil" fill="currentColor">
<path d="M464 130L470 113.7L468 96.7L56 92.4L20 88.9L16 114.8L22 121L12 122.5L10 126L13 129L22 129L32 130Z"/>
<path d="M62 74.2L62.3 71.6L63.3 69.2L64.9 67.1L67 65.5L69.4 64.5L72 64.2L444 64.2L444 96.7L62 96.7Z"/>
<path d="M74 53.3L74.3 50.9L75.2 48.8L76.6 46.9L78.5 45.5L80.7 44.6L83 44.3L436 44.3L436 65.2L74 65.2Z"/>
<path d="M67 49.8L78 49.8L78 54.6L67 54.6Z"/>
<path fill="var(--sil-funnel,inherit)" d="M318.1 28.7L333.1 28.7L329.1 46.3L314.1 46.3Z"/>
<path d="M84 28.8L85.6 28.8L85.6 44.3L84 44.3Z"/>
</g></svg>
